<svg width="744" height="59" viewBox="0 0 744 59" fill="none" xmlns="http://www.w3.org/2000/svg">
<path d="M2.4682e-06 4.21911L0 58.9999L744 59L744 46.4849C744 46.4849 651.591 50.0023 622.949 46.4849C594.308 42.9674 457.752 29.2423 409.122 31.6131C360.493 33.9838 234.598 45.5703 186.625 36.636C138.653 27.7016 99.1292 -13.0515 2.4682e-06 4.21911Z" fill="#ECCB4D" fill-opacity="0.3"/>
<path d="M0.183961 37.8525L0 58.9999L744 59L744 28.6644C744 28.6644 688.892 8.94953 624.946 9.00017C590.293 9.00016 529.022 39.683 464.409 37.8526C435.772 37.0351 324.837 14.9182 260.402 13.9777C195.968 13.0371 39.5446 38.7424 0.183961 37.8525Z" fill="#ECCB4D" fill-opacity="0.71"/>
</svg>
